<svg width="25" height="25" viewBox="0 0 25 25" fill="none" xmlns="http://www.w3.org/2000/svg">
<path d="M7.8125 7.03125H10.9375M7.8125 12.5H17.1875M7.8125 15.625H17.1875M7.8125 18.75H10.9375M6.25 22.6562H18.75C19.1644 22.6562 19.5618 22.4916 19.8549 22.1986C20.1479 21.9056 20.3125 21.5082 20.3125 21.0938V3.90625C20.3125 3.49185 20.1479 3.09442 19.8549 2.8014C19.5618 2.50837 19.1644 2.34375 18.75 2.34375H6.25C5.8356 2.34375 5.43817 2.50837 5.14515 2.8014C4.85212 3.09442 4.6875 3.49185 4.6875 3.90625V21.0938C4.6875 21.5082 4.85212 21.9056 5.14515 22.1986C5.43817 22.4916 5.8356 22.6562 6.25 22.6562Z" stroke="white" stroke-width="1.5625" stroke-linecap="round" stroke-linejoin="round"/>
<path d="M17.1875 7.42188C17.4032 7.42188 17.5781 7.24699 17.5781 7.03125C17.5781 6.81551 17.4032 6.64062 17.1875 6.64062C16.9718 6.64062 16.7969 6.81551 16.7969 7.03125C16.7969 7.24699 16.9718 7.42188 17.1875 7.42188Z" fill="white" stroke="white" stroke-width="0.78125"/>
</svg>
