<svg width="25" height="25" viewBox="0 0 25 25" fill="none" xmlns="http://www.w3.org/2000/svg">
<g clip-path="url(#clip0_168_1945)">
<path d="M1.92083 18.8948C2.00573 19.501 2.39583 20.0047 2.94792 20.2687C4.93437 21.2193 9.85521 23.4375 12.5 23.4375C15.1448 23.4375 20.0656 21.2187 22.0521 20.2687C22.6042 20.0047 22.9943 19.501 23.0792 18.8948C23.2318 17.8021 23.4375 15.7312 23.4375 12.5C23.4375 9.26875 23.2318 7.19792 23.0792 6.10521C22.9943 5.49896 22.6042 4.99531 22.0521 4.73125C20.0656 3.78073 15.1448 1.5625 12.5 1.5625C9.85521 1.5625 4.93437 3.78125 2.94792 4.73125C2.39583 4.99531 2.00573 5.49896 1.92083 6.10521C1.76823 7.19792 1.5625 9.26875 1.5625 12.5C1.5625 15.7312 1.76823 17.8021 1.92083 18.8948Z" stroke="white" stroke-width="1.5625" stroke-linejoin="round"/>
<path d="M23.063 6.1228C21.3714 6.95614 14.4344 10.3124 12.5 10.3124M12.5 10.3124C10.5651 10.3124 3.62813 6.95562 1.93646 6.1228M12.5 10.3124V23.3072" stroke="white" stroke-width="1.5625" stroke-linecap="round" stroke-linejoin="round"/>
</g>
<defs>
<clipPath id="clip0_168_1945">
<rect width="25" height="25" fill="white"/>
</clipPath>
</defs>
</svg>
