<svg width="25" height="25" viewBox="0 0 25 25" fill="none" xmlns="http://www.w3.org/2000/svg">
<g clip-path="url(#clip0_168_1972)">
<path d="M22.2222 4.16675H2.77778C2.40942 4.16675 2.05615 4.31308 1.79569 4.57354C1.53522 4.83401 1.38889 5.18728 1.38889 5.55564V19.4445C1.38889 19.8129 1.53522 20.1662 1.79569 20.4266C2.05615 20.6871 2.40942 20.8334 2.77778 20.8334H22.2222C22.5906 20.8334 22.9438 20.6871 23.2043 20.4266C23.4648 20.1662 23.6111 19.8129 23.6111 19.4445V5.55564C23.6111 5.18728 23.4648 4.83401 23.2043 4.57354C22.9438 4.31308 22.5906 4.16675 22.2222 4.16675ZM21.1528 19.4445H3.93056L8.79167 14.4167L7.79167 13.4515L2.77778 18.639V6.61119L11.4097 15.2015C11.6699 15.4602 12.022 15.6053 12.3889 15.6053C12.7558 15.6053 13.1078 15.4602 13.3681 15.2015L22.2222 6.39591V18.5487L17.1111 13.4376L16.1319 14.4167L21.1528 19.4445ZM3.6875 5.55564H21.0972L12.3889 14.2154L3.6875 5.55564Z" fill="white"/>
</g>
<defs>
<clipPath id="clip0_168_1972">
<rect width="25" height="25" fill="white"/>
</clipPath>
</defs>
</svg>
