<svg width="25" height="25" viewBox="0 0 25 25" fill="none" xmlns="http://www.w3.org/2000/svg">
<path d="M12.5 21.875C10.1042 21.875 8.01667 21.0809 6.2375 19.4927C4.45833 17.9045 3.43819 15.9208 3.17708 13.5417H5.3125C5.55556 15.3472 6.35868 16.8403 7.72187 18.0208C9.08507 19.2014 10.6778 19.7917 12.5 19.7917C14.5312 19.7917 16.2545 19.0844 17.6698 17.6698C19.0851 16.2552 19.7924 14.5319 19.7917 12.5C19.791 10.4681 19.0837 8.74514 17.6698 7.33125C16.2559 5.91736 14.5326 5.20972 12.5 5.20833C11.3021 5.20833 10.1823 5.48611 9.14062 6.04167C8.09896 6.59722 7.22222 7.36111 6.51042 8.33333H9.375V10.4167H3.125V4.16667H5.20833V6.61458C6.09375 5.50347 7.17465 4.6441 8.45104 4.03646C9.72743 3.42882 11.0771 3.125 12.5 3.125C13.8021 3.125 15.0219 3.37257 16.1594 3.86771C17.2969 4.36285 18.2865 5.0309 19.1281 5.87188C19.9698 6.71285 20.6382 7.70243 21.1333 8.84063C21.6285 9.97882 21.8757 11.1986 21.875 12.5C21.8743 13.8014 21.6271 15.0212 21.1333 16.1594C20.6396 17.2976 19.9712 18.2872 19.1281 19.1281C18.2851 19.9691 17.2955 20.6375 16.1594 21.1333C15.0233 21.6292 13.8035 21.8764 12.5 21.875ZM15.4167 16.875L11.4583 12.9167V7.29167H13.5417V12.0833L16.875 15.4167L15.4167 16.875Z" fill="white"/>
</svg>
