<svg width="25" height="25" viewBox="0 0 25 25" fill="none" xmlns="http://www.w3.org/2000/svg">
<g clip-path="url(#clip0_168_1951)">
<path d="M12.8125 1.56245H7.5C6.16094 1.56245 5.25 1.56245 4.54687 1.62183C3.8625 1.67651 3.51094 1.77808 3.26719 1.90308C2.67921 2.20268 2.20116 2.68072 1.90156 3.2687C1.77656 3.51245 1.675 3.86245 1.62031 4.54839C1.5625 5.24995 1.56094 6.1562 1.56094 7.49995V15.9375C1.56094 17.2765 1.5625 18.1875 1.62031 18.8906C1.67656 19.575 1.77812 19.9265 1.90156 20.1703C2.20156 20.7578 2.67969 21.2359 3.26719 21.5359C3.51094 21.6609 3.8625 21.7625 4.54687 21.8171C4.9375 21.8484 5.39062 21.864 5.94531 21.8703C6.14844 22.4328 6.45781 22.9671 6.87656 23.4328C4.65781 23.4296 3.48594 23.3906 2.56406 22.9218C1.68291 22.4726 0.966444 21.7561 0.517186 20.875C0.00624847 19.8718 0.00624847 18.5625 0.00624847 15.9375V7.49995C0.00624847 4.87495 0.00624847 3.56245 0.517186 2.56245C0.968183 1.68257 1.68418 0.966574 2.56406 0.515576C3.56719 0.00463872 4.87656 0.00463867 7.50156 0.00463867H12.8141C15.4391 0.00463867 16.7516 0.00463872 17.7516 0.515576C18.6314 0.966574 19.3474 1.68257 19.7984 2.56245C20.1734 3.29683 20.2734 4.20308 20.3 5.67183C20.1127 5.66842 19.9254 5.67625 19.7391 5.69526C19.4412 5.33035 19.0917 5.01084 18.7016 4.74683L18.6875 4.55933C18.6313 3.87495 18.5312 3.52339 18.4062 3.27808C18.1064 2.69068 17.6284 2.21321 17.0406 1.91401C16.7969 1.78901 16.4469 1.68745 15.7609 1.63276C15.0578 1.57495 14.1516 1.57339 12.8078 1.57339L12.8125 1.56245Z" fill="white"/>
<path d="M12.6094 4.6875H3.90625C3.69905 4.6875 3.50034 4.76981 3.35382 4.91632C3.20731 5.06284 3.125 5.26155 3.125 5.46875C3.125 5.67595 3.20731 5.87466 3.35382 6.02118C3.50034 6.16769 3.69905 6.25 3.90625 6.25H8.70313C9.562 5.78179 10.5425 5.58459 11.5156 5.68438C11.8313 5.29844 12.2047 4.96094 12.625 4.6875H12.6094ZM3.90625 9.375H5.95313C5.76962 9.87577 5.67292 10.4042 5.66719 10.9375H3.91719C3.70999 10.9375 3.51127 10.8552 3.36476 10.7087C3.21825 10.5622 3.13594 10.3635 3.13594 10.1562C3.13594 9.94905 3.21825 9.75034 3.36476 9.60382C3.51127 9.45731 3.70999 9.375 3.91719 9.375H3.90625ZM4.04688 14.0625H3.9C3.6928 14.0625 3.49409 14.1448 3.34757 14.2913C3.20106 14.4378 3.11875 14.6365 3.11875 14.8438C3.11875 15.051 3.20106 15.2497 3.34757 15.3962C3.49409 15.5427 3.6928 15.625 3.9 15.625V15.2531C3.9 14.8417 3.94896 14.4448 4.04688 14.0625Z" fill="white"/>
<path fill-rule="evenodd" clip-rule="evenodd" d="M15.625 18.75C17.3438 18.75 18.75 17.3516 18.75 15.625C18.75 13.9062 17.3516 12.5 15.625 12.5C13.9062 12.5 12.5 13.8984 12.5 15.625C12.5 17.3438 13.8984 18.75 15.625 18.75ZM15.625 17.1875C16.0394 17.1875 16.4368 17.0229 16.7299 16.7299C17.0229 16.4368 17.1875 16.0394 17.1875 15.625C17.1875 15.2106 17.0229 14.8132 16.7299 14.5201C16.4368 14.2271 16.0394 14.0625 15.625 14.0625C15.2106 14.0625 14.8132 14.2271 14.5201 14.5201C14.2271 14.8132 14.0625 15.2106 14.0625 15.625C14.0625 16.0394 14.2271 16.4368 14.5201 16.7299C14.8132 17.0229 15.2106 17.1875 15.625 17.1875Z" fill="white"/>
<path fill-rule="evenodd" clip-rule="evenodd" d="M15.9375 6.24997H15.1969C13.9625 6.24997 12.9313 7.14841 12.7438 8.3281C12.6328 8.37089 12.5229 8.41622 12.4141 8.46403C11.9347 8.12226 11.3495 7.96182 10.7629 8.01133C10.1762 8.06084 9.62625 8.31707 9.21094 8.73435L8.68438 9.26091C8.26822 9.67686 8.01277 10.2267 7.96329 10.813C7.91381 11.3993 8.07351 11.9842 8.41406 12.464C8.36615 12.5734 8.32083 12.6833 8.27813 12.7937C7.69802 12.8918 7.17126 13.1918 6.79097 13.6407C6.41068 14.0896 6.20136 14.6585 6.2 15.2468V15.9875C6.2 17.2265 7.10156 18.2531 8.27813 18.4562C8.31979 18.5646 8.36406 18.6718 8.41094 18.7781C8.06761 19.2595 7.90606 19.8471 7.95498 20.4364C8.0039 21.0257 8.26012 21.5786 8.67813 21.9968L9.19375 22.5125C10.0719 23.3906 11.4438 23.4812 12.4281 22.775C12.5302 22.8218 12.6333 22.8651 12.7375 22.9047C12.8339 23.4897 13.135 24.0215 13.5873 24.405C14.0395 24.7886 14.6133 24.9989 15.2063 24.9984H15.9219C17.1719 24.9984 18.2031 24.0859 18.4062 22.889C18.5083 22.8484 18.6094 22.8062 18.7094 22.7625C19.6906 23.4718 21.0688 23.3843 21.9594 22.5015L22.4609 22C23.3438 21.1172 23.4312 19.7343 22.7219 18.75C22.7667 18.6489 22.8089 18.5479 22.8484 18.4468C23.4377 18.3504 23.9734 18.0476 24.3598 17.5924C24.7463 17.1373 24.9582 16.5595 24.9578 15.9625V15.2468C24.9578 14.0015 24.05 12.9656 22.8641 12.7781C22.8236 12.673 22.7809 12.5688 22.7359 12.4656C23.4391 11.489 23.3516 10.1218 22.4703 9.23122L21.9578 8.71872C21.5396 8.30071 20.9867 8.04449 20.3974 7.99557C19.8081 7.94666 19.2205 8.10821 18.7391 8.45153C18.6328 8.40435 18.5255 8.35955 18.4172 8.31716C18.3187 7.7344 18.0164 7.20557 17.5643 6.82495C17.1121 6.44434 16.5395 6.23669 15.9484 6.23903L15.9375 6.24997ZM14.2656 8.74997C14.2656 8.23591 14.6813 7.82028 15.1953 7.82028H15.9359C16.4516 7.82028 16.8703 8.23903 16.8703 8.75466C16.8703 9.19528 17.1813 9.56872 17.5984 9.71247C17.8443 9.79685 18.0828 9.89633 18.3141 10.0109C18.7109 10.2062 19.1984 10.1625 19.5109 9.84997C19.6867 9.67488 19.9246 9.57658 20.1727 9.57658C20.4207 9.57658 20.6587 9.67488 20.8344 9.84997L21.3484 10.364C21.5248 10.5407 21.6238 10.7801 21.6238 11.0297C21.6238 11.2792 21.5248 11.5186 21.3484 11.6953C21.0344 12.0093 20.9891 12.4968 21.1828 12.8953C21.2922 13.1213 21.388 13.3541 21.4703 13.5937C21.6156 14.0156 21.9922 14.3312 22.4375 14.3312C22.9578 14.3312 23.3797 14.7531 23.3797 15.2734V15.989C23.3797 16.2402 23.2799 16.481 23.1024 16.6586C22.9248 16.8361 22.6839 16.9359 22.4328 16.9359C21.9859 16.9359 21.6078 17.2515 21.4609 17.6718C21.3797 17.9073 21.2849 18.1359 21.1766 18.3578C20.9813 18.7593 21.025 19.2515 21.3422 19.5672C21.4303 19.655 21.5002 19.7593 21.5479 19.8742C21.5956 19.9891 21.6202 20.1123 21.6202 20.2367C21.6202 20.3611 21.5956 20.4843 21.5479 20.5992C21.5002 20.7141 21.4303 20.8184 21.3422 20.9062L20.8406 21.4078C20.7528 21.4959 20.6485 21.5658 20.5336 21.6135C20.4187 21.6612 20.2955 21.6858 20.1711 21.6858C20.0467 21.6858 19.9235 21.6612 19.8086 21.6135C19.6937 21.5658 19.5894 21.4959 19.5016 21.4078C19.1859 21.0922 18.6938 21.0468 18.2922 21.2422C18.0703 21.3505 17.8417 21.4453 17.6063 21.5265C17.1844 21.6734 16.8688 22.0515 16.8688 22.4984C16.8688 22.7495 16.769 22.9904 16.5914 23.1679C16.4138 23.3455 16.173 23.4453 15.9219 23.4453H15.2063C14.9564 23.4453 14.7167 23.346 14.54 23.1693C14.3633 22.9926 14.2641 22.753 14.2641 22.5031C14.2641 22.0578 13.9484 21.6797 13.5266 21.5359C13.2882 21.4542 13.0549 21.3582 12.8281 21.2484C12.4297 21.0547 11.9422 21.1 11.6281 21.4125C11.4515 21.5888 11.2121 21.6878 10.9625 21.6878C10.7129 21.6878 10.4735 21.5888 10.2969 21.4125L9.78281 20.8984C9.60773 20.7227 9.50942 20.4847 9.50942 20.2367C9.50942 19.9886 9.60773 19.7507 9.78281 19.575C10.0953 19.2625 10.1391 18.775 9.94375 18.3781C9.82956 18.146 9.72989 17.907 9.64531 17.6625C9.50156 17.2453 9.12813 16.9343 8.6875 16.9343C8.43994 16.9335 8.20276 16.8348 8.02771 16.6598C7.85266 16.4847 7.75395 16.2475 7.75313 16V15.2593C7.75313 14.7453 8.16875 14.3297 8.68281 14.3297C9.12344 14.3297 9.49531 14.0187 9.6375 13.6015C9.7226 13.3527 9.82333 13.1095 9.93906 12.8734C10.1328 12.4797 10.0891 11.9968 9.77813 11.6859C9.6039 11.5113 9.50605 11.2747 9.50605 11.0281C9.50605 10.7814 9.6039 10.5449 9.77813 10.3703L10.3047 9.84372C10.4793 9.66949 10.7159 9.57164 10.9625 9.57164C11.2091 9.57164 11.4457 9.66949 11.6203 9.84372C11.9313 10.1547 12.4141 10.1984 12.8078 10.0047C13.0422 9.89007 13.2849 9.78955 13.5359 9.7031C13.9531 9.56247 14.2641 9.18903 14.2641 8.74841L14.2656 8.74997Z" fill="white"/>
</g>
<defs>
<clipPath id="clip0_168_1951">
<rect width="25" height="25" fill="white"/>
</clipPath>
</defs>
</svg>
