<svg width="25" height="25" viewBox="0 0 25 25" fill="none" xmlns="http://www.w3.org/2000/svg">
<path fill-rule="evenodd" clip-rule="evenodd" d="M10.9375 2.08325C9.52562 2.08337 8.13423 2.42113 6.87944 3.06835C5.62464 3.71557 4.54281 4.65348 3.72421 5.80383C2.9056 6.95418 2.37397 8.28361 2.17366 9.68121C1.97334 11.0788 2.11016 12.5041 2.57269 13.838C3.03522 15.172 3.81005 16.376 4.83254 17.3496C5.85503 18.3232 7.09553 19.0382 8.45054 19.4349C9.80554 19.8316 11.2358 19.8985 12.6219 19.63C14.008 19.3616 15.3098 18.7655 16.4188 17.8916L20.2229 21.6958C20.4194 21.8855 20.6825 21.9905 20.9556 21.9881C21.2287 21.9857 21.49 21.8762 21.6831 21.6831C21.8763 21.4899 21.9858 21.2287 21.9882 20.9555C21.9906 20.6824 21.8856 20.4193 21.6958 20.2228L17.8917 16.4187C18.9208 15.1131 19.5616 13.5441 19.7407 11.8913C19.9198 10.2385 19.63 8.56869 18.9044 7.07293C18.1788 5.57718 17.0468 4.31591 15.6378 3.43349C14.2289 2.55107 12.6 2.08314 10.9375 2.08325ZM4.16667 10.9374C4.16667 9.14168 4.88002 7.41949 6.1498 6.14972C7.41958 4.87994 9.14176 4.16659 10.9375 4.16659C12.7332 4.16659 14.4554 4.87994 15.7252 6.14972C16.995 7.41949 17.7083 9.14168 17.7083 10.9374C17.7083 12.7332 16.995 14.4553 15.7252 15.7251C14.4554 16.9949 12.7332 17.7083 10.9375 17.7083C9.14176 17.7083 7.41958 16.9949 6.1498 15.7251C4.88002 14.4553 4.16667 12.7332 4.16667 10.9374Z" fill="white"/>
</svg>
