<svg width="25" height="25" viewBox="0 0 25 25" fill="none" xmlns="http://www.w3.org/2000/svg">
<path d="M12.5 12.2395V12.7603M12.5 8.33325V8.85409M12.5 16.1458V16.6666M19.7917 19.7916C20.3442 19.7916 20.8741 19.5721 21.2648 19.1814C21.6555 18.7907 21.875 18.2608 21.875 17.7083V14.5833C21.3225 14.5833 20.7926 14.3638 20.4019 13.9731C20.0112 13.5824 19.7917 13.0525 19.7917 12.4999C19.7917 11.9474 20.0112 11.4175 20.4019 11.0268C20.7926 10.6361 21.3225 10.4166 21.875 10.4166V7.29159C21.875 6.73905 21.6555 6.20915 21.2648 5.81845C20.8741 5.42775 20.3442 5.20825 19.7917 5.20825H5.20833C4.6558 5.20825 4.12589 5.42775 3.73519 5.81845C3.34449 6.20915 3.125 6.73905 3.125 7.29159V10.4166C3.67753 10.4166 4.20744 10.6361 4.59814 11.0268C4.98884 11.4175 5.20833 11.9474 5.20833 12.4999C5.20833 13.0525 4.98884 13.5824 4.59814 13.9731C4.20744 14.3638 3.67753 14.5833 3.125 14.5833V17.7083C3.125 18.2608 3.34449 18.7907 3.73519 19.1814C4.12589 19.5721 4.6558 19.7916 5.20833 19.7916H19.7917Z" stroke="white" stroke-width="1.5625" stroke-linecap="round" stroke-linejoin="round"/>
</svg>
